<svg xmlns="http://www.w3.org/2000/svg" xmlns:xlink="http://www.w3.org/1999/xlink" viewBox="0 0 750 1334"><defs><style>.cls-1{fill:url(#Gradiente_sem_nome_203);}.cls-2{fill:url(#Gradiente_sem_nome_253);}.cls-3{fill:url(#Gradiente_sem_nome_239);}.cls-4{fill:url(#Gradiente_sem_nome_241);}.cls-5{fill:url(#Gradiente_sem_nome_236);}.cls-6{fill:url(#Gradiente_sem_nome_180);}.cls-11,.cls-7,.cls-9{fill:none;stroke-miterlimit:10;}.cls-7{stroke:#fff;stroke-width:2px;}.cls-8{fill:url(#Gradiente_sem_nome_171);}.cls-9{stroke:#ecff04;}.cls-11,.cls-9{stroke-width:3px;}.cls-10{fill:url(#Gradiente_sem_nome_246);}.cls-11{stroke:#ff7faf;}.cls-12{fill:url(#Gradiente_sem_nome_20);}</style><linearGradient id="Gradiente_sem_nome_203" x1="-4.49" y1="399.28" x2="749.83" y2="399.28" gradientUnits="userSpaceOnUse"><stop offset="0" stop-color="#261e40"/><stop offset="0.21" stop-color="#1f324e"/><stop offset="0.65" stop-color="#0f6772"/><stop offset="1" stop-color="#009492"/></linearGradient><linearGradient id="Gradiente_sem_nome_253" x1="472.74" y1="778.57" x2="752.65" y2="970.89" gradientUnits="userSpaceOnUse"><stop offset="0" stop-color="#ffd894"/><stop offset="0.11" stop-color="#fdd397"/><stop offset="0.25" stop-color="#f9c49e"/><stop offset="0.4" stop-color="#f1abaa"/><stop offset="0.56" stop-color="#e788bc"/><stop offset="0.72" stop-color="#d95bd2"/><stop offset="0.89" stop-color="#c825ed"/><stop offset="1" stop-color="#bd00ff"/></linearGradient><linearGradient id="Gradiente_sem_nome_239" x1="-4.26" y1="85.06" x2="234.91" y2="85.06" gradientUnits="userSpaceOnUse"><stop offset="0" stop-color="#c9087e"/><stop offset="0.26" stop-color="#d0327a"/><stop offset="0.84" stop-color="#e09b70"/><stop offset="1" stop-color="#e5b96d"/></linearGradient><linearGradient id="Gradiente_sem_nome_241" x1="597.12" y1="99.48" x2="748.48" y2="99.48" gradientUnits="userSpaceOnUse"><stop offset="0" stop-color="#7fceff"/><stop offset="0.21" stop-color="#71d6eb"/><stop offset="0.64" stop-color="#4cebb6"/><stop offset="1" stop-color="#2aff85"/></linearGradient><linearGradient id="Gradiente_sem_nome_236" x1="-33.77" y1="834" x2="217.61" y2="834" gradientUnits="userSpaceOnUse"><stop offset="0" stop-color="#7f47dd"/><stop offset="0.15" stop-color="#715be1"/><stop offset="0.45" stop-color="#4d90eb"/><stop offset="0.87" stop-color="#13e4fa"/><stop offset="1" stop-color="aqua"/></linearGradient><linearGradient id="Gradiente_sem_nome_180" x1="525.13" y1="53.17" x2="551.27" y2="72.29" gradientUnits="userSpaceOnUse"><stop offset="0" stop-color="#7fceff"/><stop offset="0.13" stop-color="#7abaf6"/><stop offset="0.4" stop-color="#6c85de"/><stop offset="0.79" stop-color="#5731b9"/><stop offset="1" stop-color="#4a00a3"/></linearGradient><linearGradient id="Gradiente_sem_nome_171" x1="24.03" y1="155.75" x2="63.64" y2="184.72" gradientUnits="userSpaceOnUse"><stop offset="0" stop-color="#d55677"/><stop offset="0.15" stop-color="#c14c71"/><stop offset="0.46" stop-color="#8c3363"/><stop offset="0.89" stop-color="#380b4b"/><stop offset="1" stop-color="#220145"/></linearGradient><linearGradient id="Gradiente_sem_nome_246" x1="1374.15" y1="-8197.78" x2="1442.17" y2="-8238.8" gradientTransform="translate(-778.38 8332.51)" gradientUnits="userSpaceOnUse"><stop offset="0" stop-color="#230055"/><stop offset="0.31" stop-color="#2d0069"/><stop offset="0.94" stop-color="#47009e"/><stop offset="1" stop-color="#4a00a3"/></linearGradient><linearGradient id="Gradiente_sem_nome_20" x1="270.62" y1="75.88" x2="326.66" y2="131.92" gradientUnits="userSpaceOnUse"><stop offset="0" stop-color="#eeff3f"/><stop offset="0.17" stop-color="#eefa3c"/><stop offset="0.39" stop-color="#eceb32"/><stop offset="0.63" stop-color="#ead223"/><stop offset="0.87" stop-color="#e7af0d"/><stop offset="1" stop-color="#e59b00"/></linearGradient></defs><title>fundo</title><g id="Camada_3" data-name="Camada 3"><rect class="cls-1" x="-4.49" y="0.85" width="754.32" height="796.87"/><path class="cls-2" d="M541,782.92c-7.61-43.31,79.92-94.19,132-17.46s76.2,89.2,76.2,89.2l-2.09,200.54s-47.16,50.86-102.45-.29-53.09-83.44-42.29-111c8.76-22.37,34.85-57.39,18.59-97.94S546.34,813.2,541,782.92Z"/><path class="cls-3" d="M-4.26,1.12V141.56s30.67,39.75,66.91,23.58c16.26-7.25,23.47-7.77,51.81-53.87,0,0,13.94-25.19,43.68-25.73,0,0,24.43.91,32.52,0,12.37-1.39,30.67-7,39.5-34.84,0,0,10.68-24.66,0-49.31Z"/><path class="cls-4" d="M625.35,1.39S661.13,33,634.18,78l-22.3,35.38s-22.3,34.84-12.08,60,32.06,24.12,32.06,24.12,18.58,0,60.4-31.62c0,0,30.67-17.16,55.3-.54l.92-164Z"/><path class="cls-5" d="M217.61,860c.06-18-3.38-42.31-39-49.28-10-2-40-9.36-40-9.36S120,798.21,95.87,758.91c0,0-26.12-54.52-48.32-57.4-13.42-1.74-37.4-2.18-51.58,21.21,0,0-26.94,34.31-29.27,71.74S-28.65,855-28.65,855s18.58,57.4,35.78,57.4,25.09,34.31,25.09,34.31S44.5,973,68.46,966C109.69,954,217.22,974.8,217.61,860Z"/><ellipse class="cls-6" cx="535.68" cy="60.88" rx="15.33" ry="17.69"/><ellipse class="cls-7" cx="687.15" cy="287.62" rx="10.22" ry="11.79"/><ellipse class="cls-8" cx="43.83" cy="170.23" rx="23.23" ry="26.8"/><ellipse class="cls-9" cx="104.7" cy="726.94" rx="36.71" ry="42.35"/><rect class="cls-10" x="583.08" y="80.93" width="83.62" height="72.48" transform="translate(742.06 -507.72) rotate(90)"/><rect class="cls-11" x="572.07" y="136.5" width="32.7" height="28.34" transform="translate(739.08 -437.75) rotate(90)"/><ellipse class="cls-12" cx="298.64" cy="103.9" rx="36.71" ry="42.35"/></g></svg>