<svg xmlns="http://www.w3.org/2000/svg" xmlns:xlink="http://www.w3.org/1999/xlink" viewBox="0 0 992 1408.73"><defs><style>.cls-1{fill:url(#Gradiente_sem_nome_203);}.cls-2{fill:url(#Gradiente_sem_nome_253);}.cls-3{fill:url(#Gradiente_sem_nome_239);}.cls-4{fill:url(#Gradiente_sem_nome_241);}.cls-5{fill:url(#Gradiente_sem_nome_236);}.cls-6{fill:url(#Gradiente_sem_nome_180);}.cls-11,.cls-7,.cls-9{fill:none;stroke-miterlimit:10;}.cls-7{stroke:#fff;stroke-width:2px;}.cls-8{fill:url(#Gradiente_sem_nome_171);}.cls-9{stroke:#ecff04;}.cls-11,.cls-9{stroke-width:3px;}.cls-10{fill:url(#Gradiente_sem_nome_246);}.cls-11{stroke:#ff7faf;}.cls-12{fill:url(#Gradiente_sem_nome_20);}</style><linearGradient id="Gradiente_sem_nome_203" x1="-3.58" y1="398.65" x2="1005.98" y2="398.65" gradientUnits="userSpaceOnUse"><stop offset="0" stop-color="#261e40"/><stop offset="0.21" stop-color="#1f324e"/><stop offset="0.65" stop-color="#0f6772"/><stop offset="1" stop-color="#009492"/></linearGradient><linearGradient id="Gradiente_sem_nome_253" x1="650.84" y1="583.9" x2="1000.19" y2="823.93" gradientUnits="userSpaceOnUse"><stop offset="0" stop-color="#ffd894"/><stop offset="0.11" stop-color="#fdd397"/><stop offset="0.25" stop-color="#f9c49e"/><stop offset="0.4" stop-color="#f1abaa"/><stop offset="0.56" stop-color="#e788bc"/><stop offset="0.72" stop-color="#d95bd2"/><stop offset="0.89" stop-color="#c825ed"/><stop offset="1" stop-color="#bd00ff"/></linearGradient><linearGradient id="Gradiente_sem_nome_239" x1="-3.27" y1="97.92" x2="316.82" y2="97.92" gradientUnits="userSpaceOnUse"><stop offset="0" stop-color="#c9087e"/><stop offset="0.26" stop-color="#d0327a"/><stop offset="0.84" stop-color="#e09b70"/><stop offset="1" stop-color="#e5b96d"/></linearGradient><linearGradient id="Gradiente_sem_nome_241" x1="801.6" y1="114.64" x2="1004.18" y2="114.64" gradientUnits="userSpaceOnUse"><stop offset="0" stop-color="#7fceff"/><stop offset="0.21" stop-color="#71d6eb"/><stop offset="0.64" stop-color="#4cebb6"/><stop offset="1" stop-color="#2aff85"/></linearGradient><linearGradient id="Gradiente_sem_nome_236" x1="-42.77" y1="838.33" x2="293.67" y2="838.33" gradientUnits="userSpaceOnUse"><stop offset="0" stop-color="#7f47dd"/><stop offset="0.15" stop-color="#715be1"/><stop offset="0.45" stop-color="#4d90eb"/><stop offset="0.87" stop-color="#13e4fa"/><stop offset="1" stop-color="aqua"/></linearGradient><linearGradient id="Gradiente_sem_nome_180" x1="706" y1="60.09" x2="739.13" y2="84.32" gradientUnits="userSpaceOnUse"><stop offset="0" stop-color="#7fceff"/><stop offset="0.13" stop-color="#7abaf6"/><stop offset="0.4" stop-color="#6c85de"/><stop offset="0.79" stop-color="#5731b9"/><stop offset="1" stop-color="#4a00a3"/></linearGradient><linearGradient id="Gradiente_sem_nome_171" x1="35.99" y1="178.37" x2="86.19" y2="215.08" gradientUnits="userSpaceOnUse"><stop offset="0" stop-color="#d55677"/><stop offset="0.15" stop-color="#c14c71"/><stop offset="0.46" stop-color="#8c3363"/><stop offset="0.89" stop-color="#380b4b"/><stop offset="1" stop-color="#220145"/></linearGradient><linearGradient id="Gradiente_sem_nome_246" x1="2769.33" y1="-7025.4" x2="2852.41" y2="-7075.5" gradientTransform="translate(-1966.14 7182.01)" gradientUnits="userSpaceOnUse"><stop offset="0" stop-color="#230055"/><stop offset="0.31" stop-color="#2d0069"/><stop offset="0.94" stop-color="#47009e"/><stop offset="1" stop-color="#4a00a3"/></linearGradient><linearGradient id="Gradiente_sem_nome_20" x1="367.38" y1="85.03" x2="436.86" y2="154.5" gradientUnits="userSpaceOnUse"><stop offset="0" stop-color="#eeff3f"/><stop offset="0.17" stop-color="#eefa3c"/><stop offset="0.39" stop-color="#eceb32"/><stop offset="0.63" stop-color="#ead223"/><stop offset="0.87" stop-color="#e7af0d"/><stop offset="1" stop-color="#e59b00"/></linearGradient></defs><title>fundo</title><g id="Camada_3" data-name="Camada 3"><rect class="cls-1" x="-3.58" y="0.21" width="1009.56" height="796.87"/><path class="cls-2" d="M726.52,600.08c-10.19-50.26,107-109.29,176.61-20.27s102,103.49,102,103.49L1002.32,916s-63.12,59-137.12-.34-71.05-96.8-56.59-128.82c11.71-25.95,46.64-66.59,24.87-113.63S733.64,635.2,726.52,600.08Z"/><path class="cls-3" d="M-3.27.53V163.46s41,46.11,89.55,27.36c21.77-8.42,31.4-9,69.34-62.5,0,0,18.65-29.23,58.45-29.85,0,0,32.7,1.06,43.53,0,16.56-1.61,41-8.08,52.86-40.42,0,0,14.31-28.61,0-57.21Z"/><path class="cls-4" d="M839.39.84s47.88,36.69,11.81,88.92l-29.85,41.05s-29.85,40.42-16.17,69.65,42.91,28,42.91,28,24.88,0,80.85-36.69c0,0,41-19.9,74-.62L1004.18.84Z"/><path class="cls-5" d="M293.67,868.46c.08-20.87-4.53-49.1-52.24-57.18C228,809,188,800.43,188,800.43s-24.87-3.62-57.21-49.22c0,0-34.95-63.24-64.67-66.58-18-2-50.06-2.53-69,24.61,0,0-36.07,39.8-39.18,83.23s6.22,70.2,6.22,70.2S-11,929.25,12,929.25s33.58,39.8,33.58,39.8S62,999.62,94.05,991.49C149.23,977.5,293.15,1001.69,293.67,868.46Z"/><circle class="cls-6" cx="719.37" cy="69.86" r="20.52"/><circle class="cls-7" cx="922.1" cy="332.91" r="13.68"/><circle class="cls-8" cx="61.09" cy="196.73" r="31.09"/><circle class="cls-9" cx="142.56" cy="714.13" r="49.13"/><rect class="cls-10" x="790.26" y="86.65" width="97.01" height="97.01" transform="translate(973.93 -703.61) rotate(90)"/><rect class="cls-11" x="770.98" y="155.06" width="37.93" height="37.93" transform="translate(963.98 -615.92) rotate(90)"/><circle class="cls-12" cx="402.12" cy="119.77" r="49.13"/></g></svg>