<svg xmlns="http://www.w3.org/2000/svg" xmlns:xlink="http://www.w3.org/1999/xlink" viewBox="0 0 1125 2436"><defs><style>.cls-1{fill:url(#Gradiente_sem_nome_249);}.cls-2{fill:url(#Gradiente_sem_nome_253);}.cls-3{fill:url(#Gradiente_sem_nome_239);}.cls-4{fill:url(#Gradiente_sem_nome_241);}.cls-5{fill:url(#Gradiente_sem_nome_236);}.cls-6{fill:url(#Gradiente_sem_nome_180);}.cls-11,.cls-7,.cls-9{fill:none;stroke-miterlimit:10;}.cls-7{stroke:#fff;stroke-width:2px;}.cls-8{fill:url(#Gradiente_sem_nome_171);}.cls-9{stroke:#ecff04;}.cls-11,.cls-9{stroke-width:3px;}.cls-10{fill:url(#Gradiente_sem_nome_246);}.cls-11{stroke:#ff7faf;}</style><linearGradient id="Gradiente_sem_nome_249" x1="-0.5" y1="371" x2="1124.5" y2="371" gradientUnits="userSpaceOnUse"><stop offset="0" stop-color="#261e40"/><stop offset="0.21" stop-color="#1f324e"/><stop offset="0.65" stop-color="#0f6772"/><stop offset="1" stop-color="#009492"/></linearGradient><linearGradient id="Gradiente_sem_nome_253" x1="582.03" y1="582.56" x2="1106.88" y2="943.19" gradientUnits="userSpaceOnUse"><stop offset="0" stop-color="#ffd894"/><stop offset="0.11" stop-color="#fdd397"/><stop offset="0.25" stop-color="#f9c49e"/><stop offset="0.4" stop-color="#f1abaa"/><stop offset="0.56" stop-color="#e788bc"/><stop offset="0.72" stop-color="#d95bd2"/><stop offset="0.89" stop-color="#c825ed"/><stop offset="1" stop-color="#bd00ff"/></linearGradient><linearGradient id="Gradiente_sem_nome_239" y1="152.61" x2="514.72" y2="152.61" gradientUnits="userSpaceOnUse"><stop offset="0" stop-color="#c9087e"/><stop offset="0.26" stop-color="#d0327a"/><stop offset="0.84" stop-color="#e09b70"/><stop offset="1" stop-color="#e5b96d"/></linearGradient><linearGradient id="Gradiente_sem_nome_241" x1="801.73" y1="179.51" x2="1127.5" y2="179.51" gradientUnits="userSpaceOnUse"><stop offset="0" stop-color="#7fceff"/><stop offset="0.21" stop-color="#71d6eb"/><stop offset="0.64" stop-color="#4cebb6"/><stop offset="1" stop-color="#2aff85"/></linearGradient><linearGradient id="Gradiente_sem_nome_236" x1="-63.52" y1="705.87" x2="477.5" y2="705.87" gradientUnits="userSpaceOnUse"><stop offset="0" stop-color="#7f47dd"/><stop offset="0.15" stop-color="#715be1"/><stop offset="0.45" stop-color="#4d90eb"/><stop offset="0.87" stop-color="#13e4fa"/><stop offset="1" stop-color="aqua"/></linearGradient><linearGradient id="Gradiente_sem_nome_180" x1="648" y1="91.78" x2="701.28" y2="130.74" gradientUnits="userSpaceOnUse"><stop offset="0" stop-color="#7fceff"/><stop offset="0.13" stop-color="#7abaf6"/><stop offset="0.4" stop-color="#6c85de"/><stop offset="0.79" stop-color="#5731b9"/><stop offset="1" stop-color="#4a00a3"/></linearGradient><linearGradient id="Gradiente_sem_nome_171" x1="63.14" y1="281.98" x2="143.86" y2="341.02" gradientUnits="userSpaceOnUse"><stop offset="0" stop-color="#d55677"/><stop offset="0.15" stop-color="#c14c71"/><stop offset="0.46" stop-color="#8c3363"/><stop offset="0.89" stop-color="#380b4b"/><stop offset="1" stop-color="#220145"/></linearGradient><linearGradient id="Gradiente_sem_nome_246" x1="800.3" y1="219.99" x2="933.89" y2="139.44" gradientTransform="translate(4 27)" gradientUnits="userSpaceOnUse"><stop offset="0" stop-color="#230055"/><stop offset="0.31" stop-color="#2d0069"/><stop offset="0.94" stop-color="#47009e"/><stop offset="1" stop-color="#4a00a3"/></linearGradient></defs><title>fundo</title><g id="Camada_1" data-name="Camada 1"><rect class="cls-1" x="-0.5" y="-4.5" width="1125" height="751"/><path class="cls-2" d="M681,624c-16.39-69.44,172-151,284-28s164,143,164,143l-4.5,321.47S1023,1142,904,1060,789.75,926.24,813,882c18.84-35.85,75-92,40-157S692.45,672.53,681,624Z"/></g><g id="Camada_3" data-name="Camada 3"><path class="cls-3" d="M0-4V258s66,74.16,144,44c35-13.53,50.5-14.5,111.5-100.5,0,0,30-47,94-48,0,0,52.58,1.7,70,0,26.62-2.6,66-13,85-65,0,0,23-46,0-92Z"/><path class="cls-4" d="M862.5-3.5s77,59,19,143l-48,66s-48,65-26,112,69,45,69,45,40,0,130-59c0,0,66-32,119-1l2-306Z"/><path class="cls-5" d="M477.5,747.5c.13-28.83-7.28-67.84-84-79-21.6-3.14-86-15-86-15s-40-5-92-68c0,0-56.21-87.39-104-92-28.89-2.79-80.5-3.5-111,34,0,0-58,55-63,115s10,97,10,97,40,92,77,92,54,55,54,55,26.44,42.23,78,31C245.23,898.17,476.65,931.59,477.5,747.5Z"/><circle class="cls-6" cx="669.5" cy="107.5" r="33"/><circle class="cls-7" cx="995.5" cy="530.5" r="22"/><circle class="cls-8" cx="103.5" cy="311.5" r="50"/><circle class="cls-9" cx="234.5" cy="622.5" r="79"/><rect class="cls-10" x="783.5" y="134.5" width="156" height="156" transform="translate(1074 -649) rotate(90)"/><rect class="cls-11" x="752.5" y="244.5" width="61" height="61" transform="translate(1058 -508) rotate(90)"/></g></svg>