<svg xmlns="http://www.w3.org/2000/svg" xmlns:xlink="http://www.w3.org/1999/xlink" viewBox="0 0 2226.19 2737.26"><defs><style>.cls-1{fill:url(#Gradiente_sem_nome_203);}.cls-2{fill:url(#Gradiente_sem_nome_253);}.cls-3{fill:url(#Gradiente_sem_nome_239);}.cls-4{fill:url(#Gradiente_sem_nome_241);}.cls-5{fill:url(#Gradiente_sem_nome_236);}.cls-6{fill:url(#Gradiente_sem_nome_180);}.cls-11,.cls-7,.cls-9{fill:none;stroke-miterlimit:10;}.cls-7{stroke:#fff;stroke-width:2px;}.cls-8{fill:url(#Gradiente_sem_nome_171);}.cls-9{stroke:#ecff04;}.cls-11,.cls-9{stroke-width:3px;}.cls-10{fill:url(#Gradiente_sem_nome_246);}.cls-11{stroke:#ff7faf;}.cls-12{fill:url(#Gradiente_sem_nome_20);}</style><linearGradient id="Gradiente_sem_nome_203" x1="4.61" y1="1020.81" x2="2235.06" y2="1020.81" gradientUnits="userSpaceOnUse"><stop offset="0" stop-color="#261e40"/><stop offset="0.21" stop-color="#1f324e"/><stop offset="0.65" stop-color="#0f6772"/><stop offset="1" stop-color="#009492"/></linearGradient><linearGradient id="Gradiente_sem_nome_253" x1="1450.36" y1="1766.52" x2="2222.17" y2="2296.82" gradientUnits="userSpaceOnUse"><stop offset="0" stop-color="#ffd894"/><stop offset="0.11" stop-color="#fdd397"/><stop offset="0.25" stop-color="#f9c49e"/><stop offset="0.4" stop-color="#f1abaa"/><stop offset="0.56" stop-color="#e788bc"/><stop offset="0.72" stop-color="#d95bd2"/><stop offset="0.89" stop-color="#c825ed"/><stop offset="1" stop-color="#bd00ff"/></linearGradient><linearGradient id="Gradiente_sem_nome_239" x1="5.3" y1="210.17" x2="712.48" y2="210.17" gradientUnits="userSpaceOnUse"><stop offset="0" stop-color="#c9087e"/><stop offset="0.26" stop-color="#d0327a"/><stop offset="0.84" stop-color="#e09b70"/><stop offset="1" stop-color="#e5b96d"/></linearGradient><linearGradient id="Gradiente_sem_nome_241" x1="1783.51" y1="247.12" x2="2231.09" y2="247.12" gradientUnits="userSpaceOnUse"><stop offset="0" stop-color="#7fceff"/><stop offset="0.21" stop-color="#71d6eb"/><stop offset="0.64" stop-color="#4cebb6"/><stop offset="1" stop-color="#2aff85"/></linearGradient><linearGradient id="Gradiente_sem_nome_236" x1="-82.27" y1="1966.97" x2="661.05" y2="1966.97" gradientUnits="userSpaceOnUse"><stop offset="0" stop-color="#7f47dd"/><stop offset="0.15" stop-color="#715be1"/><stop offset="0.45" stop-color="#4d90eb"/><stop offset="0.87" stop-color="#13e4fa"/><stop offset="1" stop-color="aqua"/></linearGradient><linearGradient id="Gradiente_sem_nome_180" x1="1572.3" y1="126.59" x2="1645.5" y2="180.12" gradientUnits="userSpaceOnUse"><stop offset="0" stop-color="#7fceff"/><stop offset="0.13" stop-color="#7abaf6"/><stop offset="0.4" stop-color="#6c85de"/><stop offset="0.79" stop-color="#5731b9"/><stop offset="1" stop-color="#4a00a3"/></linearGradient><linearGradient id="Gradiente_sem_nome_171" x1="92.04" y1="387.91" x2="202.95" y2="469.03" gradientUnits="userSpaceOnUse"><stop offset="0" stop-color="#d55677"/><stop offset="0.15" stop-color="#c14c71"/><stop offset="0.46" stop-color="#8c3363"/><stop offset="0.89" stop-color="#380b4b"/><stop offset="1" stop-color="#220145"/></linearGradient><linearGradient id="Gradiente_sem_nome_246" x1="-2105.39" y1="2139.13" x2="-1921.85" y2="2028.46" gradientTransform="translate(3892.43 -1799.29)" gradientUnits="userSpaceOnUse"><stop offset="0" stop-color="#230055"/><stop offset="0.31" stop-color="#2d0069"/><stop offset="0.94" stop-color="#47009e"/><stop offset="1" stop-color="#4a00a3"/></linearGradient><linearGradient id="Gradiente_sem_nome_20" x1="824.19" y1="181.69" x2="977.69" y2="335.19" gradientUnits="userSpaceOnUse"><stop offset="0" stop-color="#eeff3f"/><stop offset="0.17" stop-color="#eefa3c"/><stop offset="0.39" stop-color="#eceb32"/><stop offset="0.63" stop-color="#ead223"/><stop offset="0.87" stop-color="#e7af0d"/><stop offset="1" stop-color="#e59b00"/></linearGradient></defs><title>fundo</title><g id="Camada_3" data-name="Camada 3"><rect class="cls-1" x="4.61" y="-5.69" width="2230.45" height="2053"/><path class="cls-2" d="M1617.54,1802.25c-22.51-111,236.32-241.44,390.2-44.77s225.32,228.65,225.32,228.65l-6.19,514s-139.45,130.36-302.94-.76-157-213.87-125-284.61c25.89-57.33,103-147.1,55-251S1633.28,1879.85,1617.54,1802.25Z"/><path class="cls-3" d="M5.3-5V355S96,456.86,203.14,415.42c48.09-18.6,69.38-19.92,153.19-138.08,0,0,41.22-64.57,129.15-65.95,0,0,72.24,2.34,96.17,0,36.58-3.57,90.68-17.86,116.79-89.3,0,0,31.6-63.2,0-126.4Z"/><path class="cls-4" d="M1867-4.31s105.79,81.06,26.11,196.47l-65.95,90.68s-66,89.3-35.72,153.87,94.8,61.83,94.8,61.83,55,0,178.61-81.06c0,0,90.68-44,163.49-1.37l2.75-420.42Z"/><path class="cls-5" d="M661.05,2033.53c.18-46.09-10-108.47-115.41-126.32-29.68-5-118.16-24-118.16-24s-55-8-126.4-108.73c0,0-77.23-139.73-142.89-147.1-39.69-4.46-110.6-5.6-152.5,54.36,0,0-79.69,87.94-86.56,183.88s13.74,155.1,13.74,155.1,55,147.1,105.79,147.1,74.19,87.94,74.19,87.94,36.33,67.53,107.17,49.57C341.92,2274.45,659.88,2327.88,661.05,2033.53Z"/><circle class="cls-6" cx="1601.84" cy="148.19" r="45.34"/><circle class="cls-7" cx="2049.73" cy="729.36" r="30.23"/><circle class="cls-8" cx="147.5" cy="428.47" r="68.7"/><circle class="cls-9" cx="327.18" cy="1692.57" r="108.54"/><rect class="cls-10" x="1758.46" y="185.29" width="214.33" height="214.33" transform="translate(2158.08 -1573.18) rotate(90)"/><rect class="cls-11" x="1715.87" y="336.42" width="83.81" height="83.81" transform="translate(2136.1 -1379.45) rotate(90)"/><circle class="cls-12" cx="900.94" cy="258.44" r="108.54"/></g></svg>