<svg xmlns="http://www.w3.org/2000/svg" xmlns:xlink="http://www.w3.org/1999/xlink" viewBox="0 0 750 1334"><defs><style>.cls-1,.cls-15,.cls-18,.cls-21{fill:none;}.cls-2{clip-path:url(#clip-path);}.cls-3{clip-path:url(#clip-path-2);}.cls-4{fill:url(#Gradiente_sem_nome_9);}.cls-5{clip-path:url(#clip-path-3);}.cls-6{fill:url(#Gradiente_sem_nome_2);}.cls-7{clip-path:url(#clip-path-4);}.cls-8{fill:url(#Gradiente_sem_nome_3);}.cls-9{clip-path:url(#clip-path-5);}.cls-10{fill:url(#Gradiente_sem_nome_4);}.cls-11{clip-path:url(#clip-path-6);}.cls-12{fill:url(#Gradiente_sem_nome_5);}.cls-13{clip-path:url(#clip-path-7);}.cls-14{fill:url(#Gradiente_sem_nome_6);}.cls-15{stroke:#fff;stroke-width:1.3px;}.cls-15,.cls-18,.cls-21{stroke-miterlimit:10;}.cls-16{clip-path:url(#clip-path-9);}.cls-17{fill:url(#Gradiente_sem_nome_7);}.cls-18{stroke:#ecff04;}.cls-18,.cls-21{stroke-width:1.95px;}.cls-19{clip-path:url(#clip-path-11);}.cls-20{fill:url(#Gradiente_sem_nome_8);}.cls-21{stroke:#ff7faf;}</style><clipPath id="clip-path"><rect class="cls-1" x="0.5" y="-1" width="757" height="1523"/></clipPath><clipPath id="clip-path-2"><rect class="cls-1" x="0.5" y="-1" width="756.66" height="466.72"/></clipPath><linearGradient id="Gradiente_sem_nome_9" x1="2032.69" y1="-833.78" x2="2033.37" y2="-833.78" gradientTransform="matrix(1125, 0, 0, -1125, -2286778.5, -937771)" gradientUnits="userSpaceOnUse"><stop offset="0" stop-color="#261e40"/><stop offset="0.22" stop-color="#1f334f"/><stop offset="0.68" stop-color="#0e6a75"/><stop offset="1" stop-color="#009492"/></linearGradient><clipPath id="clip-path-3"><path class="cls-1" d="M458.74,389.13c7.7,30.34,92.18,22.51,115.73,63.14S560.24,528,547.56,550.43c-15.65,27.66-18.84,60,61.23,111.29s148.37.29,148.37.29l.34-22.35V459.86c-9.5-4.46-44.32-23.6-107.66-88.24-28.28-28.85-63.79-39.7-96.55-39.7-54.54,0-101.44,30.09-94.55,57.21"/></clipPath><linearGradient id="Gradiente_sem_nome_2" x1="2034.32" y1="-836.94" x2="2035" y2="-836.94" gradientTransform="matrix(524.85, 360.62, 360.62, -524.85, -765523.57, -1172523.78)" gradientUnits="userSpaceOnUse"><stop offset="0" stop-color="#ffd894"/><stop offset="0.11" stop-color="#fdd397"/><stop offset="0.25" stop-color="#f9c49e"/><stop offset="0.4" stop-color="#f1abaa"/><stop offset="0.56" stop-color="#e788bc"/><stop offset="0.72" stop-color="#d95bd2"/><stop offset="0.89" stop-color="#c825ec"/><stop offset="1" stop-color="#bd00ff"/></linearGradient><clipPath id="clip-path-4"><path class="cls-1" d="M.5-1V160.3s44.41,46.37,96.9,27.51c23.55-8.46,34-9.06,75-62.83,0,0,20.19-29.39,63.25-30,0,0,35.39,1.06,47.11,0,17.91-1.62,44.41-8.13,57.19-40.64,0,0,14.7-27.32,1.12-55.33Z"/></clipPath><linearGradient id="Gradiente_sem_nome_3" x1="2030.55" y1="-837.25" x2="2031.22" y2="-837.25" gradientTransform="matrix(514.72, 0, 0, -514.72, -1045167.87, -430848.57)" gradientUnits="userSpaceOnUse"><stop offset="0" stop-color="#c9087e"/><stop offset="0.25" stop-color="#cf317a"/><stop offset="0.82" stop-color="#e09770"/><stop offset="1" stop-color="#e5b96d"/></linearGradient><clipPath id="clip-path-5"><path class="cls-1" d="M583.61-1c10.18,8.65,43.5,42.19,10,87.22l-32.3,41.26s-32.3,40.64-17.49,70,46.43,28.14,46.43,28.14,26.91,0,87.47-36.89c0,0,44.14-19.88,79.74-.81V-1Z"/></clipPath><linearGradient id="Gradiente_sem_nome_4" x1="2027.45" y1="-840.82" x2="2028.12" y2="-840.82" gradientTransform="matrix(325.77, 0, 0, -325.77, -659943.19, -273802.51)" gradientUnits="userSpaceOnUse"><stop offset="0" stop-color="#7fceff"/><stop offset="0.21" stop-color="#71d6eb"/><stop offset="0.63" stop-color="#4debb7"/><stop offset="1" stop-color="#2aff85"/></linearGradient><clipPath id="clip-path-6"><path class="cls-1" d="M.84,328.8l-.34.3V511.68c5.39,4.37,11,7.18,16.49,7.18,24.89,0,36.33,34.38,36.33,34.38a51.69,51.69,0,0,0,52.49,19.39c59.7-12.09,215.43,8.8,216-106.29.09-18-4.9-42.41-56.52-49.39-14.53-2-57.87-9.38-57.87-9.38s-26.91-3.12-61.9-42.51c0,0-37.83-54.64-70-57.52-4.4-.4-9.58-.72-15.2-.72-19.23,0-43.61,3.83-59.49,22"/></clipPath><linearGradient id="Gradiente_sem_nome_5" x1="2030.78" y1="-836.55" x2="2031.45" y2="-836.55" gradientTransform="matrix(541.02, 0, 0, -541.02, -1098738.47, -452150.49)" gradientUnits="userSpaceOnUse"><stop offset="0" stop-color="#7f47dd"/><stop offset="0.15" stop-color="#715ce1"/><stop offset="0.45" stop-color="#4c91eb"/><stop offset="0.88" stop-color="#12e5fa"/><stop offset="1" stop-color="aqua"/></linearGradient><clipPath id="clip-path-7"><path class="cls-1" d="M428.79,66.21c0,11.39,9.95,20.63,22.21,20.63s22.2-9.24,22.2-20.63S463.26,45.58,451,45.58s-22.21,9.23-22.21,20.63"/></clipPath><linearGradient id="Gradiente_sem_nome_6" x1="2035.93" y1="-890.6" x2="2036.61" y2="-890.6" gradientTransform="matrix(53.28, 38.96, 38.96, -53.28, -73327.66, -126721.68)" gradientUnits="userSpaceOnUse"><stop offset="0" stop-color="#7fceff"/><stop offset="0.13" stop-color="#7abaf6"/><stop offset="0.4" stop-color="#6c86df"/><stop offset="0.78" stop-color="#5733ba"/><stop offset="1" stop-color="#4a00a3"/></linearGradient><clipPath id="clip-path-9"><path class="cls-1" d="M36.5,193.75C36.5,211,51.56,225,70.14,225s33.65-14,33.65-31.26-15.06-31.26-33.65-31.26-33.64,14-33.64,31.26"/></clipPath><linearGradient id="Gradiente_sem_nome_7" x1="2036.56" y1="-868.62" x2="2037.24" y2="-868.62" gradientTransform="matrix(80.72, 59.04, 59.04, -80.72, -113069.27, -190176.63)" gradientUnits="userSpaceOnUse"><stop offset="0" stop-color="#d55677"/><stop offset="0.15" stop-color="#c14c71"/><stop offset="0.46" stop-color="#8c3363"/><stop offset="0.89" stop-color="#380b4b"/><stop offset="1" stop-color="#220145"/></linearGradient><clipPath id="clip-path-11"><rect class="cls-1" x="527.71" y="83.09" width="104.97" height="97.53"/></clipPath><linearGradient id="Gradiente_sem_nome_8" x1="2044.47" y1="-854.26" x2="2045.13" y2="-854.26" gradientTransform="matrix(80.56, 133.59, 133.59, -80.56, -50013.73, -341846.17)" gradientUnits="userSpaceOnUse"><stop offset="0" stop-color="#230055"/><stop offset="0.31" stop-color="#2d006a"/><stop offset="0.95" stop-color="#48009f"/><stop offset="1" stop-color="#4a00a3"/></linearGradient></defs><title>contacto</title><g id="Camada_3" data-name="Camada 3"><g class="cls-2"><g class="cls-3"><rect class="cls-4" x="0.5" y="-1" width="756.66" height="466.72"/></g><g class="cls-5"><polygon class="cls-6" points="549.87 199.37 948.92 454.12 659.48 845.54 260.42 590.78 549.87 199.37"/></g><g class="cls-7"><rect class="cls-8" x="0.5" y="-1" width="354.17" height="207.67"/></g><g class="cls-9"><rect class="cls-10" x="529.05" y="-1" width="228.45" height="227.89"/></g><g class="cls-11"><rect class="cls-12" x="0.5" y="306.82" width="321.39" height="274.62"/></g><g class="cls-13"><polygon class="cls-14" points="444.27 25.92 494.37 59.96 457.73 106.5 407.63 72.46 444.27 25.92"/></g><g class="cls-2"><ellipse class="cls-15" cx="670.36" cy="330.67" rx="14.8" ry="13.75"/></g><g class="cls-16"><polygon class="cls-17" points="59.95 132.7 135.85 184.28 80.34 254.8 4.44 203.22 59.95 132.7"/></g><g class="cls-2"><ellipse class="cls-18" cx="158.29" cy="388.19" rx="53.16" ry="49.39"/></g><g class="cls-19"><polygon class="cls-20" points="604.69 39.96 679.1 154.62 555.7 223.75 481.29 109.1 604.69 39.96"/></g><g class="cls-2"><rect class="cls-21" x="506.85" y="151.86" width="41.05" height="38.14"/></g></g></g></svg>