<svg xmlns="http://www.w3.org/2000/svg" xmlns:xlink="http://www.w3.org/1999/xlink" viewBox="0 0 2238 2732"><defs><style>.cls-1{fill:url(#Gradiente_sem_nome_203);}.cls-2{fill:url(#Gradiente_sem_nome_253);}.cls-3{fill:url(#Gradiente_sem_nome_239);}.cls-4{fill:url(#Gradiente_sem_nome_241);}.cls-5{fill:url(#Gradiente_sem_nome_236);}.cls-6{fill:url(#Gradiente_sem_nome_180);}.cls-11,.cls-7,.cls-9{fill:none;stroke-miterlimit:10;}.cls-7{stroke:#fff;stroke-width:2px;}.cls-8{fill:url(#Gradiente_sem_nome_171);}.cls-9{stroke:#ecff04;}.cls-11,.cls-9{stroke-width:3px;}.cls-10{fill:url(#Gradiente_sem_nome_246);}.cls-11{stroke:#ff7faf;}</style><linearGradient id="Gradiente_sem_nome_203" x1="-7.77" y1="992.98" x2="2245.81" y2="992.98" gradientUnits="userSpaceOnUse"><stop offset="0" stop-color="#261e40"/><stop offset="0.21" stop-color="#1f324e"/><stop offset="0.65" stop-color="#0f6772"/><stop offset="1" stop-color="#009492"/></linearGradient><linearGradient id="Gradiente_sem_nome_253" x1="1159.14" y1="1603.35" x2="2210.53" y2="2325.75" gradientUnits="userSpaceOnUse"><stop offset="0" stop-color="#ffd894"/><stop offset="0.11" stop-color="#fdd397"/><stop offset="0.25" stop-color="#f9c49e"/><stop offset="0.4" stop-color="#f1abaa"/><stop offset="0.56" stop-color="#e788bc"/><stop offset="0.72" stop-color="#d95bd2"/><stop offset="0.89" stop-color="#c825ed"/><stop offset="1" stop-color="#bd00ff"/></linearGradient><linearGradient id="Gradiente_sem_nome_239" x1="-6.77" y1="314.71" x2="1024.31" y2="314.71" gradientUnits="userSpaceOnUse"><stop offset="0" stop-color="#c9087e"/><stop offset="0.26" stop-color="#d0327a"/><stop offset="0.84" stop-color="#e09b70"/><stop offset="1" stop-color="#e5b96d"/></linearGradient><linearGradient id="Gradiente_sem_nome_241" x1="1599.24" y1="368.6" x2="2251.82" y2="368.6" gradientUnits="userSpaceOnUse"><stop offset="0" stop-color="#7fceff"/><stop offset="0.21" stop-color="#71d6eb"/><stop offset="0.64" stop-color="#4cebb6"/><stop offset="1" stop-color="#2aff85"/></linearGradient><linearGradient id="Gradiente_sem_nome_236" x1="-134.01" y1="1850.37" x2="949.75" y2="1850.37" gradientUnits="userSpaceOnUse"><stop offset="0" stop-color="#7f47dd"/><stop offset="0.15" stop-color="#715be1"/><stop offset="0.45" stop-color="#4d90eb"/><stop offset="0.87" stop-color="#13e4fa"/><stop offset="1" stop-color="aqua"/></linearGradient><linearGradient id="Gradiente_sem_nome_180" x1="1291.29" y1="192.86" x2="1398.02" y2="270.91" gradientUnits="userSpaceOnUse"><stop offset="0" stop-color="#7fceff"/><stop offset="0.13" stop-color="#7abaf6"/><stop offset="0.4" stop-color="#6c85de"/><stop offset="0.79" stop-color="#5731b9"/><stop offset="1" stop-color="#4a00a3"/></linearGradient><linearGradient id="Gradiente_sem_nome_171" x1="119.71" y1="573.88" x2="281.41" y2="692.14" gradientUnits="userSpaceOnUse"><stop offset="0" stop-color="#d55677"/><stop offset="0.15" stop-color="#c14c71"/><stop offset="0.46" stop-color="#8c3363"/><stop offset="0.89" stop-color="#380b4b"/><stop offset="1" stop-color="#220145"/></linearGradient><linearGradient id="Gradiente_sem_nome_246" x1="6479.93" y1="-238.05" x2="6747.54" y2="-399.42" gradientTransform="translate(-4875.54 741.84)" gradientUnits="userSpaceOnUse"><stop offset="0" stop-color="#230055"/><stop offset="0.31" stop-color="#2d0069"/><stop offset="0.94" stop-color="#47009e"/><stop offset="1" stop-color="#4a00a3"/></linearGradient></defs><title>experimentar</title><g id="Camada_3" data-name="Camada 3"><rect class="cls-1" x="-7.77" width="2253.59" height="1985.95"/><path class="cls-2" d="M1357.4,1686.36c-32.83-139.1,344.55-302.48,568.9-56.09s328.53,286.46,328.53,286.46l-9,644s-203.32,163.32-441.7-.94-228.87-267.95-182.29-356.57c37.74-71.82,150.24-184.29,80.13-314.5S1380.34,1783.58,1357.4,1686.36Z"/><path class="cls-3" d="M-6.77,1V525.84S125.43,674.39,281.69,614C351.8,586.87,382.85,584.93,505,412.66c0,0,60.1-94.15,188.3-96.16,0,0,105.34,3.41,140.23,0,53.33-5.2,132.21-26,170.27-130.2,0,0,46.07-92.15,0-184.3Z"/><path class="cls-4" d="M1721,2S1875.22,120.19,1759,288.46l-96.16,132.21S1566.73,550.88,1610.8,645,1749,735.17,1749,735.17s80.13,0,260.42-118.19c0,0,132.21-64.1,238.38-2l4-613Z"/><path class="cls-5" d="M949.75,1933.75c.27-57.74-14.59-135.88-168.27-158.25-43.26-6.29-172.27-30-172.27-30s-80.13-10-184.29-136.21c0,0-112.61-175.06-208.34-184.3-57.87-5.58-161.25-7-222.35,68.11,0,0-116.18,110.18-126.2,230.37s20,194.31,20,194.31S-31.81,2102,42.31,2102,150.48,2212.2,150.48,2212.2s53,84.6,156.25,62.1C484.47,2235.58,948.06,2302.52,949.75,1933.75Z"/><circle class="cls-6" cx="1334.36" cy="224.36" r="66.11"/><circle class="cls-7" cx="1987.4" cy="1071.7" r="44.07"/><circle class="cls-8" cx="200.56" cy="633.01" r="100.16"/><circle class="cls-9" cx="462.98" cy="1683.36" r="158.25"/><rect class="cls-10" x="1562.73" y="278.44" width="312.5" height="312.5" transform="translate(2153.67 -1284.28) rotate(90)"/><rect class="cls-11" x="1500.63" y="498.79" width="122.19" height="122.19" transform="translate(2121.61 -1001.83) rotate(90)"/></g></svg>