<svg xmlns="http://www.w3.org/2000/svg" xmlns:xlink="http://www.w3.org/1999/xlink" viewBox="0 0 2048 2732"><defs><style>.cls-1{fill:url(#Gradiente_sem_nome_203);}.cls-2{fill:url(#Gradiente_sem_nome_253);}.cls-3{fill:url(#Gradiente_sem_nome_239);}.cls-4{fill:url(#Gradiente_sem_nome_241);}.cls-5{fill:url(#Gradiente_sem_nome_236);}.cls-6{fill:url(#Gradiente_sem_nome_180);}.cls-11,.cls-7,.cls-9{fill:none;stroke-miterlimit:10;}.cls-7{stroke:#fff;stroke-width:2px;}.cls-8{fill:url(#Gradiente_sem_nome_171);}.cls-9{stroke:#ecff04;}.cls-11,.cls-9{stroke-width:3px;}.cls-10{fill:url(#Gradiente_sem_nome_246);}.cls-11{stroke:#ff7faf;}</style><linearGradient id="Gradiente_sem_nome_203" x1="3.45" y1="908.5" x2="2065.32" y2="908.5" gradientUnits="userSpaceOnUse"><stop offset="0" stop-color="#261e40"/><stop offset="0.21" stop-color="#1f324e"/><stop offset="0.65" stop-color="#0f6772"/><stop offset="1" stop-color="#009492"/></linearGradient><linearGradient id="Gradiente_sem_nome_253" x1="1071.1" y1="1466.95" x2="2033.03" y2="2127.89" gradientUnits="userSpaceOnUse"><stop offset="0" stop-color="#ffd894"/><stop offset="0.11" stop-color="#fdd397"/><stop offset="0.25" stop-color="#f9c49e"/><stop offset="0.4" stop-color="#f1abaa"/><stop offset="0.56" stop-color="#e788bc"/><stop offset="0.72" stop-color="#d95bd2"/><stop offset="0.89" stop-color="#c825ed"/><stop offset="1" stop-color="#bd00ff"/></linearGradient><linearGradient id="Gradiente_sem_nome_239" x1="4.37" y1="287.94" x2="947.74" y2="287.94" gradientUnits="userSpaceOnUse"><stop offset="0" stop-color="#c9087e"/><stop offset="0.26" stop-color="#d0327a"/><stop offset="0.84" stop-color="#e09b70"/><stop offset="1" stop-color="#e5b96d"/></linearGradient><linearGradient id="Gradiente_sem_nome_241" x1="1473.76" y1="337.24" x2="2070.82" y2="337.24" gradientUnits="userSpaceOnUse"><stop offset="0" stop-color="#7fceff"/><stop offset="0.21" stop-color="#71d6eb"/><stop offset="0.64" stop-color="#4cebb6"/><stop offset="1" stop-color="#2aff85"/></linearGradient><linearGradient id="Gradiente_sem_nome_236" x1="-112.05" y1="1692.95" x2="879.52" y2="1692.95" gradientUnits="userSpaceOnUse"><stop offset="0" stop-color="#7f47dd"/><stop offset="0.15" stop-color="#715be1"/><stop offset="0.45" stop-color="#4d90eb"/><stop offset="0.87" stop-color="#13e4fa"/><stop offset="1" stop-color="aqua"/></linearGradient><linearGradient id="Gradiente_sem_nome_180" x1="1192.01" y1="176.45" x2="1289.65" y2="247.86" gradientUnits="userSpaceOnUse"><stop offset="0" stop-color="#7fceff"/><stop offset="0.13" stop-color="#7abaf6"/><stop offset="0.4" stop-color="#6c85de"/><stop offset="0.79" stop-color="#5731b9"/><stop offset="1" stop-color="#4a00a3"/></linearGradient><linearGradient id="Gradiente_sem_nome_171" x1="120.09" y1="525.05" x2="268.03" y2="633.26" gradientUnits="userSpaceOnUse"><stop offset="0" stop-color="#d55677"/><stop offset="0.15" stop-color="#c14c71"/><stop offset="0.46" stop-color="#8c3363"/><stop offset="0.89" stop-color="#380b4b"/><stop offset="1" stop-color="#220145"/></linearGradient><linearGradient id="Gradiente_sem_nome_246" x1="3551.37" y1="-3085.58" x2="3796.22" y2="-3233.22" gradientTransform="translate(-2072.91 3546.51)" gradientUnits="userSpaceOnUse"><stop offset="0" stop-color="#230055"/><stop offset="0.31" stop-color="#2d0069"/><stop offset="0.94" stop-color="#47009e"/><stop offset="1" stop-color="#4a00a3"/></linearGradient></defs><title>fundo</title><g id="Camada_3" data-name="Camada 3"><rect class="cls-1" x="3.45" width="2061.86" height="1817"/><path class="cls-2" d="M1252.49,1542.89c-30-127.26,315.23-276.74,520.5-51.31s300.58,262.08,300.58,262.08l-8.25,589.18s-186,149.43-404.13-.86-209.39-245.15-166.78-326.23C1529,1950,1631.87,1847.13,1567.72,1728S1273.48,1631.84,1252.49,1542.89Z"/><path class="cls-3" d="M4.37.92V481.1s121,135.92,263.92,80.64c64.15-24.8,92.55-26.57,204.35-184.19,0,0,55-86.14,172.28-88,0,0,96.38,3.11,128.3,0,48.79-4.76,121-23.83,155.78-119.13,0,0,42.16-84.31,0-168.62Z"/><path class="cls-4" d="M1585.13,1.83S1726.26,110,1620,263.92l-88,121S1444,504,1484.33,590.15s126.46,82.48,126.46,82.48,73.31,0,238.26-108.14c0,0,121-58.65,218.1-1.83l3.67-560.83Z"/><path class="cls-5" d="M879.52,1769.24c.24-52.83-13.35-124.33-153.95-144.79C686,1618.69,568,1597,568,1597s-73.31-9.16-168.62-124.63c0,0-103-160.16-190.61-168.61-52.94-5.11-147.53-6.42-203.43,62.31,0,0-106.3,100.8-115.47,210.77s18.33,177.78,18.33,177.78,73.31,168.61,141.12,168.61,99,100.81,99,100.81,48.45,77.4,143,56.81C453.82,2045.39,878,2106.63,879.52,1769.24Z"/><circle class="cls-6" cx="1231.41" cy="205.27" r="60.48"/><circle class="cls-7" cx="1828.89" cy="980.53" r="40.32"/><circle class="cls-8" cx="194.06" cy="579.15" r="91.64"/><circle class="cls-9" cx="434.16" cy="1540.15" r="144.79"/><rect class="cls-10" x="1440.34" y="254.75" width="285.91" height="285.91" transform="translate(1981.01 -1185.59) rotate(90)"/><rect class="cls-11" x="1383.53" y="456.36" width="111.8" height="111.8" transform="translate(1951.69 -927.17) rotate(90)"/></g></svg>